<svg id="svg" version="1.1" xmlns="http://www.w3.org/2000/svg" xmlns:xlink="http://www.w3.org/1999/xlink" width="400" height="87.72635814889335" viewBox="0, 0, 400,87.72635814889335"><g id="svgg"><path id="path0" d="M210.583 13.994 C 206.685 14.454,203.287 17.119,201.333 21.250 C 199.995 24.079,199.667 26.132,199.667 31.660 L 199.667 35.000 197.117 35.000 C 194.327 35.000,194.167 35.050,194.167 35.930 C 194.167 36.750,194.385 36.820,197.095 36.870 L 199.583 36.917 199.626 57.741 C 199.659 74.146,199.712 78.592,199.876 78.696 C 199.990 78.769,200.402 78.829,200.792 78.831 L 201.500 78.833 201.500 58.097 C 201.500 46.692,201.546 37.242,201.601 37.097 C 201.691 36.862,202.463 36.833,208.588 36.833 C 212.374 36.833,215.591 36.788,215.736 36.732 C 215.959 36.647,216.146 35.297,215.958 35.129 C 215.935 35.109,212.692 35.053,208.750 35.004 L 201.583 34.917 201.605 30.250 C 201.635 23.817,202.148 22.087,204.986 18.846 C 207.952 15.459,213.647 14.667,217.889 17.051 L 218.534 17.414 218.933 16.915 C 219.682 15.979,219.097 15.475,216.139 14.504 C 214.671 14.022,212.237 13.798,210.583 13.994 M106.244 15.042 C 106.201 15.156,106.147 22.406,106.125 31.152 L 106.083 47.054 105.270 45.485 C 100.310 35.925,88.919 31.595,78.435 35.286 C 68.386 38.823,62.509 49.699,64.578 60.927 C 65.043 63.449,65.444 64.760,66.399 66.880 C 66.638 67.409,66.833 67.883,66.833 67.933 C 66.833 68.579,69.737 72.116,71.914 74.122 C 73.798 75.857,78.600 78.046,81.917 78.681 C 83.463 78.977,89.112 78.984,90.250 78.691 C 90.708 78.573,91.533 78.364,92.083 78.226 C 93.536 77.862,95.519 77.159,96.000 76.837 C 96.229 76.684,96.867 76.311,97.417 76.007 C 99.842 74.667,104.987 69.267,105.002 68.046 C 105.002 67.975,105.246 67.504,105.543 67.000 L 106.083 66.083 106.167 72.417 L 106.250 78.750 107.042 78.801 L 107.833 78.852 107.833 46.842 L 107.833 14.833 107.078 14.833 C 106.627 14.833,106.291 14.917,106.244 15.042 M391.944 14.944 C 391.883 15.006,391.833 22.211,391.833 30.956 C 391.833 48.554,391.899 47.610,390.831 45.360 C 389.714 43.004,387.290 40.107,385.083 38.486 C 384.533 38.082,384.046 37.706,384.000 37.651 C 383.954 37.595,383.467 37.304,382.917 37.003 C 382.367 36.702,381.842 36.403,381.750 36.339 C 378.410 34.007,369.780 33.386,364.544 35.101 C 359.497 36.754,354.287 41.270,352.257 45.750 C 351.482 47.462,351.386 47.711,350.943 49.167 C 348.241 58.043,350.867 68.505,357.120 73.778 C 362.700 78.483,371.734 80.310,378.417 78.085 C 383.964 76.239,388.586 72.350,390.830 67.640 C 391.839 65.522,391.825 65.456,391.873 72.448 L 391.917 78.750 392.708 78.801 L 393.500 78.852 393.500 46.842 L 393.500 14.833 392.778 14.833 C 392.381 14.833,392.006 14.883,391.944 14.944 M24.083 34.330 C 17.475 34.994,11.769 38.412,8.498 43.667 C 8.184 44.171,7.882 44.621,7.827 44.667 C 7.735 44.743,7.445 45.338,6.770 46.833 C 1.045 59.515,7.897 74.808,20.807 78.166 C 25.023 79.263,31.274 78.918,34.775 77.395 C 35.064 77.269,35.383 77.167,35.484 77.167 C 36.726 77.167,43.167 72.690,43.167 71.828 C 43.167 70.826,42.078 70.650,41.242 71.516 C 36.823 76.096,28.210 78.238,21.333 76.467 C 20.646 76.290,19.834 76.081,19.530 76.004 C 17.949 75.602,14.646 73.621,12.979 72.074 C 11.582 70.778,8.833 67.143,8.833 66.590 C 8.833 66.546,8.655 66.114,8.437 65.630 C 8.219 65.146,7.946 64.450,7.830 64.083 C 7.715 63.717,7.557 63.229,7.481 63.000 C 6.929 61.353,6.497 57.156,6.836 56.747 C 7.015 56.531,9.569 56.500,27.003 56.500 C 42.819 56.500,46.981 56.457,47.043 56.292 C 47.209 55.848,46.716 51.406,46.344 50.000 C 45.806 47.966,45.145 46.143,44.806 45.758 C 44.729 45.671,44.667 45.508,44.667 45.397 C 44.667 45.086,43.054 42.551,42.081 41.333 C 38.074 36.316,31.145 33.620,24.083 34.330 M134.409 34.378 C 134.199 34.923,134.427 65.409,134.646 66.083 C 134.764 66.450,134.940 67.050,135.036 67.417 C 137.898 78.374,151.960 82.469,163.020 75.566 C 165.111 74.262,168.289 70.289,169.245 67.785 C 170.102 65.543,170.167 65.886,170.167 72.650 L 170.167 78.852 170.958 78.801 L 171.750 78.750 171.750 56.500 L 171.750 34.250 171.000 34.250 L 170.250 34.250 170.141 46.333 C 170.024 59.404,169.961 60.465,169.111 63.667 C 167.450 69.925,163.290 74.455,157.667 76.131 C 155.276 76.844,151.757 77.224,149.569 77.005 C 147.164 76.764,145.279 76.262,143.438 75.372 C 140.012 73.715,137.679 70.609,136.546 66.197 L 136.089 64.417 136.003 49.333 L 135.917 34.250 135.207 34.199 C 134.719 34.163,134.469 34.219,134.409 34.378 M308.917 34.268 C 301.446 34.832,294.661 39.335,291.588 45.770 C 291.243 46.492,290.906 47.196,290.840 47.333 C 290.774 47.471,290.586 48.033,290.422 48.583 C 290.257 49.133,290.020 49.905,289.895 50.297 C 289.769 50.690,289.667 51.192,289.667 51.412 C 289.667 51.632,289.586 52.023,289.488 52.281 C 288.990 53.583,289.339 61.005,289.992 63.000 C 290.067 63.229,290.224 63.754,290.342 64.167 C 291.973 69.876,297.421 75.633,302.917 77.454 C 314.174 81.185,325.408 76.898,330.066 67.094 C 331.963 63.102,332.601 60.056,332.457 55.690 C 332.367 52.978,332.265 52.304,331.543 49.667 C 328.836 39.769,319.571 33.463,308.917 34.268 M247.417 34.662 C 233.900 35.671,224.487 49.204,228.055 62.500 C 229.366 67.382,232.799 72.139,237.030 74.934 C 237.917 75.520,238.687 76.000,238.741 76.000 C 238.796 76.000,239.120 76.175,239.462 76.389 C 244.313 79.424,254.537 79.425,259.372 76.390 C 259.714 76.176,260.044 76.000,260.106 76.000 C 260.516 76.000,263.739 73.571,265.030 72.287 C 278.386 59.018,269.947 36.112,251.168 34.656 C 250.113 34.575,249.175 34.517,249.083 34.529 C 248.992 34.541,248.242 34.601,247.417 34.662 M28.035 35.999 C 29.827 36.172,32.044 36.590,32.539 36.849 C 32.699 36.932,32.951 37.000,33.100 37.000 C 33.249 37.000,34.149 37.386,35.101 37.858 C 40.342 40.456,44.163 46.043,45.001 52.333 C 45.093 53.021,45.214 53.827,45.269 54.125 L 45.370 54.667 26.102 54.667 L 6.833 54.667 6.833 53.760 C 6.833 52.699,7.358 50.154,7.832 48.917 C 7.903 48.733,8.089 48.246,8.247 47.833 C 8.762 46.488,10.451 43.539,11.073 42.901 C 11.170 42.801,11.554 42.388,11.926 41.984 C 12.846 40.985,14.409 39.673,15.417 39.055 C 17.012 38.077,19.303 37.000,19.790 37.000 C 19.960 37.000,20.171 36.936,20.258 36.857 C 20.531 36.611,23.333 36.131,26.118 35.853 C 26.229 35.842,27.092 35.908,28.035 35.999 M89.096 36.084 C 90.006 36.222,91.162 36.452,91.667 36.596 C 92.171 36.739,92.808 36.917,93.083 36.992 C 94.180 37.289,97.000 38.640,97.000 38.868 C 97.000 38.941,97.080 39.000,97.178 39.000 C 97.385 39.000,98.330 39.687,99.167 40.445 C 99.487 40.736,99.901 41.111,100.085 41.279 C 101.814 42.849,104.455 47.108,105.015 49.227 C 105.091 49.515,105.272 50.163,105.417 50.667 C 108.194 60.308,103.618 71.193,95.083 75.246 C 94.533 75.507,93.953 75.784,93.794 75.860 C 93.635 75.937,93.369 76.000,93.202 76.000 C 93.036 76.000,92.829 76.065,92.742 76.145 C 92.655 76.224,91.983 76.420,91.250 76.579 C 90.517 76.739,89.667 76.944,89.361 77.036 C 88.572 77.271,83.721 77.249,82.646 77.005 C 79.569 76.306,78.283 75.889,76.588 75.040 C 67.672 70.577,63.657 59.232,67.285 48.750 C 67.719 47.496,69.211 44.533,69.652 44.046 C 69.800 43.883,70.195 43.375,70.529 42.917 C 72.217 40.599,75.820 38.025,78.583 37.162 C 78.950 37.048,79.400 36.895,79.583 36.823 C 79.991 36.663,81.923 36.233,83.167 36.026 C 84.614 35.784,87.292 35.811,89.096 36.084 M313.083 36.088 C 314.246 36.183,316.283 36.574,316.917 36.823 C 317.100 36.895,317.662 37.091,318.167 37.259 C 321.115 38.237,325.964 41.901,326.997 43.932 C 327.132 44.198,327.407 44.642,327.606 44.917 C 328.439 46.064,329.681 49.057,330.130 51.000 C 332.642 61.858,327.307 72.854,318.083 75.831 C 317.717 75.949,317.267 76.111,317.083 76.191 C 312.304 78.265,302.154 76.502,298.234 72.917 C 298.134 72.825,297.722 72.447,297.318 72.077 C 295.228 70.161,293.499 67.617,292.336 64.750 C 290.749 60.838,290.541 53.571,291.904 49.656 C 292.046 49.249,292.163 48.821,292.164 48.705 C 292.168 48.338,293.731 45.298,294.497 44.167 C 296.425 41.318,300.356 38.301,303.500 37.259 C 304.004 37.091,304.567 36.894,304.750 36.820 C 305.763 36.414,309.961 35.831,311.167 35.930 C 311.579 35.964,312.442 36.035,313.083 36.088 M374.740 36.021 C 375.613 36.182,376.608 36.413,378.936 36.992 C 382.476 37.873,387.938 42.839,389.615 46.701 C 389.724 46.953,389.926 47.404,390.064 47.704 C 394.765 57.963,389.850 71.621,380.028 75.590 C 379.417 75.837,378.767 76.099,378.583 76.173 C 378.092 76.372,376.557 76.777,375.417 77.011 C 374.209 77.257,369.349 77.274,368.417 77.034 C 368.050 76.939,367.337 76.775,366.833 76.668 C 347.689 72.619,346.200 43.044,364.833 36.956 C 365.998 36.575,366.825 36.385,368.917 36.017 C 370.138 35.802,373.574 35.804,374.740 36.021 M238.614 44.196 C 238.999 44.557,239.000 44.568,239.000 49.100 L 239.000 53.641 239.431 54.154 L 239.863 54.667 242.239 54.667 C 245.510 54.667,245.229 55.160,245.333 49.250 C 245.427 43.971,245.459 43.833,246.591 43.833 C 247.851 43.833,247.910 44.019,247.974 48.193 C 248.053 53.341,247.945 54.463,247.276 55.458 C 246.498 56.616,245.903 56.965,243.958 57.403 L 243.500 57.506 243.500 64.327 L 243.500 71.148 243.110 71.602 C 242.616 72.176,241.808 72.215,241.282 71.690 C 240.919 71.327,240.916 71.276,240.870 64.422 C 240.818 56.748,240.942 57.491,239.667 57.246 C 238.187 56.962,236.791 55.541,236.581 54.108 C 236.307 52.236,236.571 44.357,236.917 44.096 C 237.401 43.730,238.167 43.775,238.614 44.196 M243.023 44.152 C 243.501 44.538,243.727 51.321,243.290 52.164 C 242.808 53.097,241.468 53.031,241.061 52.054 C 240.598 50.947,240.799 44.565,241.310 44.152 C 241.813 43.745,242.521 43.745,243.023 44.152 M259.369 44.314 C 264.875 47.004,264.858 55.640,259.342 58.260 L 258.333 58.739 258.332 64.578 C 258.331 70.994,258.271 71.518,257.484 71.925 C 256.913 72.220,256.467 72.129,255.994 71.622 C 255.681 71.286,255.667 71.004,255.667 65.054 L 255.667 58.837 254.573 58.303 C 249.275 55.720,248.833 48.078,253.784 44.687 C 255.185 43.728,257.811 43.553,259.369 44.314 M255.856 46.562 C 251.646 48.085,252.223 55.770,256.575 56.131 C 260.647 56.469,262.541 50.265,259.251 47.369 C 258.158 46.407,257.026 46.138,255.856 46.562 " stroke="none" fill="#eac090" fill-rule="evenodd"></path><path id="path1" d="M0.000 43.833 L 0.000 87.667 200.000 87.667 L 400.000 87.667 400.000 43.833 L 400.000 0.000 200.000 0.000 L 0.000 0.000 0.000 43.833 M214.358 14.092 C 215.988 14.264,219.334 15.636,219.333 16.132 C 219.332 16.288,219.152 16.641,218.933 16.915 L 218.534 17.414 217.889 17.051 C 215.441 15.675,211.860 15.273,209.379 16.096 C 203.808 17.942,201.644 21.882,201.605 30.250 L 201.583 34.917 208.750 35.004 C 212.692 35.053,215.935 35.109,215.958 35.129 C 216.146 35.297,215.959 36.647,215.736 36.732 C 215.591 36.788,212.374 36.833,208.588 36.833 C 202.463 36.833,201.691 36.862,201.601 37.097 C 201.546 37.242,201.500 46.692,201.500 58.097 L 201.500 78.833 200.792 78.831 C 200.402 78.829,199.990 78.769,199.876 78.696 C 199.712 78.592,199.659 74.146,199.626 57.741 L 199.583 36.917 197.095 36.870 C 194.385 36.820,194.167 36.750,194.167 35.930 C 194.167 35.050,194.327 35.000,197.117 35.000 L 199.667 35.000 199.667 31.660 C 199.667 26.132,199.995 24.079,201.333 21.250 C 203.950 15.719,208.108 13.434,214.358 14.092 M107.833 46.842 L 107.833 78.852 107.042 78.801 L 106.250 78.750 106.167 72.417 L 106.083 66.083 105.543 67.000 C 105.246 67.504,105.002 67.975,105.002 68.046 C 104.987 69.267,99.842 74.667,97.417 76.007 C 96.867 76.311,96.229 76.684,96.000 76.837 C 95.519 77.159,93.536 77.862,92.083 78.226 C 91.533 78.364,90.708 78.573,90.250 78.691 C 85.168 79.999,75.744 77.650,71.914 74.122 C 69.737 72.116,66.833 68.579,66.833 67.933 C 66.833 67.883,66.638 67.409,66.399 66.880 C 61.685 56.417,64.793 43.589,73.417 37.919 C 77.970 34.925,80.730 34.108,86.250 34.120 C 94.716 34.138,101.480 38.180,105.270 45.485 L 106.083 47.054 106.125 31.152 C 106.171 13.244,106.078 14.833,107.078 14.833 L 107.833 14.833 107.833 46.842 M393.500 46.842 L 393.500 78.852 392.708 78.801 L 391.917 78.750 391.873 72.448 C 391.825 65.456,391.839 65.522,390.830 67.640 C 385.552 78.717,370.295 82.466,359.343 75.376 C 351.379 70.221,347.869 59.267,350.943 49.167 C 351.386 47.711,351.482 47.462,352.257 45.750 C 354.287 41.270,359.497 36.754,364.544 35.101 C 369.780 33.386,378.410 34.007,381.750 36.339 C 381.842 36.403,382.367 36.702,382.917 37.003 C 383.467 37.304,383.954 37.595,384.000 37.651 C 384.046 37.706,384.533 38.082,385.083 38.486 C 387.290 40.107,389.714 43.004,390.831 45.360 C 391.899 47.610,391.833 48.554,391.833 30.956 C 391.833 22.211,391.883 15.006,391.944 14.944 C 392.006 14.883,392.381 14.833,392.778 14.833 L 393.500 14.833 393.500 46.842 M30.429 34.586 C 34.958 35.358,39.331 37.891,42.081 41.333 C 43.054 42.551,44.667 45.086,44.667 45.397 C 44.667 45.508,44.729 45.671,44.806 45.758 C 45.145 46.143,45.806 47.966,46.344 50.000 C 46.716 51.406,47.209 55.848,47.043 56.292 C 46.981 56.457,42.819 56.500,27.003 56.500 C 9.569 56.500,7.015 56.531,6.836 56.747 C 6.497 57.156,6.929 61.353,7.481 63.000 C 7.557 63.229,7.715 63.717,7.830 64.083 C 7.946 64.450,8.219 65.146,8.437 65.630 C 8.655 66.114,8.833 66.546,8.833 66.590 C 8.833 67.143,11.582 70.778,12.979 72.074 C 14.646 73.621,17.949 75.602,19.530 76.004 C 19.834 76.081,20.646 76.290,21.333 76.467 C 28.210 78.238,36.823 76.096,41.242 71.516 C 42.078 70.650,43.167 70.826,43.167 71.828 C 43.167 72.690,36.726 77.167,35.484 77.167 C 35.383 77.167,35.064 77.269,34.775 77.395 C 31.274 78.918,25.023 79.263,20.807 78.166 C 7.897 74.808,1.045 59.515,6.770 46.833 C 7.445 45.338,7.735 44.743,7.827 44.667 C 7.882 44.621,8.184 44.171,8.498 43.667 C 12.880 36.627,21.491 33.062,30.429 34.586 M136.003 49.333 L 136.089 64.417 136.546 66.197 C 138.242 72.802,142.448 76.292,149.569 77.005 C 158.939 77.942,166.734 72.622,169.111 63.667 C 169.961 60.465,170.024 59.404,170.141 46.333 L 170.250 34.250 171.000 34.250 L 171.750 34.250 171.750 56.500 L 171.750 78.750 170.958 78.801 L 170.167 78.852 170.167 72.650 C 170.167 65.886,170.102 65.543,169.245 67.785 C 168.289 70.289,165.111 74.262,163.020 75.566 C 151.960 82.469,137.898 78.374,135.036 67.417 C 134.940 67.050,134.764 66.450,134.646 66.083 C 134.427 65.409,134.199 34.923,134.409 34.378 C 134.469 34.219,134.719 34.163,135.207 34.199 L 135.917 34.250 136.003 49.333 M314.917 34.590 C 324.015 36.231,330.075 42.404,332.173 52.167 C 334.400 62.528,328.033 74.341,318.490 77.552 C 313.313 79.294,308.375 79.263,302.917 77.454 C 297.421 75.633,291.973 69.876,290.342 64.167 C 290.224 63.754,290.067 63.229,289.992 63.000 C 289.339 61.005,288.990 53.583,289.488 52.281 C 289.586 52.023,289.667 51.632,289.667 51.412 C 289.667 51.192,289.769 50.690,289.895 50.297 C 290.020 49.905,290.257 49.133,290.422 48.583 C 290.586 48.033,290.774 47.471,290.840 47.333 C 290.906 47.196,291.243 46.492,291.588 45.770 C 295.561 37.451,305.193 32.835,314.917 34.590 M251.168 34.656 C 269.947 36.112,278.386 59.018,265.030 72.287 C 263.739 73.571,260.516 76.000,260.106 76.000 C 260.044 76.000,259.714 76.176,259.372 76.390 C 254.537 79.425,244.313 79.424,239.462 76.389 C 239.120 76.175,238.796 76.000,238.741 76.000 C 238.687 76.000,237.917 75.520,237.030 74.934 C 232.799 72.139,229.366 67.382,228.055 62.500 C 224.487 49.204,233.900 35.671,247.417 34.662 C 248.242 34.601,248.992 34.541,249.083 34.529 C 249.175 34.517,250.113 34.575,251.168 34.656 M24.167 36.087 C 22.097 36.339,20.479 36.657,20.258 36.857 C 20.171 36.936,19.960 37.000,19.790 37.000 C 19.303 37.000,17.012 38.077,15.417 39.055 C 14.409 39.673,12.846 40.985,11.926 41.984 C 11.554 42.388,11.170 42.801,11.073 42.901 C 10.451 43.539,8.762 46.488,8.247 47.833 C 8.089 48.246,7.903 48.733,7.832 48.917 C 7.358 50.154,6.833 52.699,6.833 53.760 L 6.833 54.667 26.102 54.667 L 45.370 54.667 45.269 54.125 C 45.214 53.827,45.093 53.021,45.001 52.333 C 44.163 46.043,40.342 40.456,35.101 37.858 C 34.149 37.386,33.249 37.000,33.100 37.000 C 32.951 37.000,32.699 36.932,32.539 36.849 C 31.862 36.496,27.094 35.756,26.118 35.853 C 26.007 35.864,25.129 35.969,24.167 36.087 M83.167 36.026 C 81.923 36.233,79.991 36.663,79.583 36.823 C 79.400 36.895,78.950 37.048,78.583 37.162 C 75.820 38.025,72.217 40.599,70.529 42.917 C 70.195 43.375,69.800 43.883,69.652 44.046 C 69.211 44.533,67.719 47.496,67.285 48.750 C 63.657 59.232,67.672 70.577,76.588 75.040 C 78.283 75.889,79.569 76.306,82.646 77.005 C 83.721 77.249,88.572 77.271,89.361 77.036 C 89.667 76.944,90.517 76.739,91.250 76.579 C 91.983 76.420,92.655 76.224,92.742 76.145 C 92.829 76.065,93.036 76.000,93.202 76.000 C 93.369 76.000,93.635 75.937,93.794 75.860 C 93.953 75.784,94.533 75.507,95.083 75.246 C 102.867 71.550,107.076 63.139,105.922 53.583 C 105.790 52.483,105.562 51.171,105.417 50.667 C 105.272 50.163,105.091 49.515,105.015 49.227 C 104.455 47.108,101.814 42.849,100.085 41.279 C 99.901 41.111,99.487 40.736,99.167 40.445 C 98.330 39.687,97.385 39.000,97.178 39.000 C 97.080 39.000,97.000 38.941,97.000 38.868 C 97.000 38.640,94.180 37.289,93.083 36.992 C 92.808 36.917,92.171 36.739,91.667 36.596 C 89.288 35.918,85.381 35.657,83.167 36.026 M308.667 36.083 C 306.831 36.309,305.312 36.595,304.750 36.820 C 304.567 36.894,304.004 37.091,303.500 37.259 C 300.356 38.301,296.425 41.318,294.497 44.167 C 293.731 45.298,292.168 48.338,292.164 48.705 C 292.163 48.821,292.046 49.249,291.904 49.656 C 290.728 53.034,290.695 59.393,291.834 63.193 C 292.881 66.689,294.759 69.730,297.318 72.077 C 297.722 72.447,298.134 72.825,298.234 72.917 C 302.154 76.502,312.304 78.265,317.083 76.191 C 317.267 76.111,317.717 75.949,318.083 75.831 C 327.307 72.854,332.642 61.858,330.130 51.000 C 329.681 49.057,328.439 46.064,327.606 44.917 C 327.407 44.642,327.132 44.198,326.997 43.932 C 325.964 41.901,321.115 38.237,318.167 37.259 C 317.662 37.091,317.100 36.895,316.917 36.823 C 316.283 36.574,314.246 36.183,313.083 36.088 C 312.442 36.035,311.579 35.964,311.167 35.930 C 310.754 35.896,309.629 35.965,308.667 36.083 M368.917 36.017 C 364.848 36.733,362.705 37.514,360.210 39.190 C 350.000 46.048,348.602 62.631,357.486 71.514 C 360.184 74.213,363.271 75.915,366.833 76.668 C 367.337 76.775,368.050 76.939,368.417 77.034 C 369.349 77.274,374.209 77.257,375.417 77.011 C 376.557 76.777,378.092 76.372,378.583 76.173 C 378.767 76.099,379.417 75.837,380.028 75.590 C 389.850 71.621,394.765 57.963,390.064 47.704 C 389.926 47.404,389.724 46.953,389.615 46.701 C 387.938 42.839,382.476 37.873,378.936 36.992 C 376.608 36.413,375.613 36.182,374.740 36.021 C 373.574 35.804,370.138 35.802,368.917 36.017 M236.917 44.096 C 236.571 44.357,236.307 52.236,236.581 54.108 C 236.791 55.541,238.187 56.962,239.667 57.246 C 240.942 57.491,240.818 56.748,240.870 64.422 C 240.916 71.276,240.919 71.327,241.282 71.690 C 241.808 72.215,242.616 72.176,243.110 71.602 L 243.500 71.148 243.500 64.327 L 243.500 57.506 243.958 57.403 C 247.707 56.559,248.089 55.684,247.974 48.193 C 247.910 44.019,247.851 43.833,246.591 43.833 C 245.459 43.833,245.427 43.971,245.333 49.250 C 245.229 55.160,245.510 54.667,242.239 54.667 L 239.863 54.667 239.431 54.154 L 239.000 53.641 239.000 49.100 C 239.000 44.568,238.999 44.557,238.614 44.196 C 238.167 43.775,237.401 43.730,236.917 44.096 M241.310 44.152 C 240.799 44.565,240.598 50.947,241.061 52.054 C 241.468 53.031,242.808 53.097,243.290 52.164 C 243.727 51.321,243.501 44.538,243.023 44.152 C 242.521 43.745,241.813 43.745,241.310 44.152 M254.951 44.081 C 249.016 46.332,248.773 55.476,254.573 58.303 L 255.667 58.837 255.667 65.054 C 255.667 71.004,255.681 71.286,255.994 71.622 C 256.467 72.129,256.913 72.220,257.484 71.925 C 258.271 71.518,258.331 70.994,258.332 64.578 L 258.333 58.739 259.342 58.260 C 264.858 55.640,264.875 47.004,259.369 44.314 C 258.382 43.832,255.947 43.703,254.951 44.081 M257.866 46.529 C 260.343 47.272,261.685 50.868,260.471 53.513 C 259.027 56.659,255.556 57.106,253.820 54.369 C 251.489 50.693,254.204 45.432,257.866 46.529 " stroke="none" fill="#dc442c" fill-rule="evenodd"></path></g></svg>