<svg id="svg" version="1.1" xmlns="http://www.w3.org/2000/svg" xmlns:xlink="http://www.w3.org/1999/xlink" width="400" height="48.148148148148145" viewBox="0, 0, 400,48.148148148148145"><g id="svgg"><path id="path0" d="M0.000 24.000 L 0.000 48.000 200.000 48.000 L 400.000 48.000 400.000 24.000 L 400.000 0.000 200.000 0.000 L 0.000 0.000 0.000 24.000 M27.950 5.034 C 28.557 5.599,28.566 6.165,28.005 8.456 C 27.718 9.626,26.931 12.824,26.255 15.563 C 25.580 18.302,25.066 20.646,25.115 20.772 C 25.247 21.115,32.802 21.108,32.934 20.764 C 33.015 20.555,32.899 19.999,32.324 17.833 C 31.243 13.766,29.499 6.194,29.573 5.897 C 29.904 4.580,31.549 4.130,32.499 5.097 C 32.929 5.535,33.143 6.258,34.667 12.417 C 35.597 16.175,36.469 19.640,36.605 20.116 L 36.852 20.981 42.975 21.032 C 51.466 21.103,50.994 20.601,49.061 27.500 C 48.920 28.004,48.707 28.754,48.587 29.167 C 48.468 29.579,48.248 30.367,48.099 30.917 C 47.826 31.921,47.750 32.184,46.859 35.250 C 46.593 36.167,46.170 37.667,45.920 38.583 C 44.760 42.837,46.919 42.333,29.853 42.333 C 13.480 42.332,14.787 42.460,14.286 40.812 C 13.911 39.576,12.025 32.990,11.667 31.667 C 11.506 31.071,10.982 29.196,10.504 27.500 C 9.080 22.456,9.134 22.713,9.400 22.200 C 9.991 21.056,9.815 21.089,15.687 21.031 C 21.996 20.969,21.171 21.440,22.158 17.333 C 24.045 9.478,25.035 5.713,25.312 5.333 C 25.962 4.442,27.166 4.306,27.950 5.034 M213.669 19.113 C 215.165 19.991,215.221 22.468,213.767 23.421 C 210.997 25.236,207.202 22.359,209.012 19.817 C 209.790 18.724,212.348 18.337,213.669 19.113 M352.859 19.129 C 354.482 20.075,354.315 22.711,352.578 23.573 C 349.701 25.000,346.459 22.232,348.178 19.817 C 348.959 18.721,351.515 18.345,352.859 19.129 M73.833 20.709 C 73.833 20.732,74.065 21.538,74.347 22.500 C 74.630 23.463,74.923 24.475,74.999 24.750 C 75.074 25.025,75.637 26.938,76.248 29.000 C 76.860 31.063,77.554 33.425,77.791 34.250 C 78.464 36.596,78.447 36.609,79.527 32.806 C 80.057 30.942,80.645 28.892,80.834 28.250 C 81.024 27.608,81.262 26.783,81.363 26.417 C 81.465 26.050,81.640 25.450,81.753 25.083 C 81.865 24.717,82.202 23.573,82.500 22.542 L 83.043 20.667 87.022 20.667 L 91.000 20.667 91.000 31.667 L 91.000 42.667 88.230 42.667 L 85.459 42.667 85.528 34.917 C 85.597 26.988,85.588 26.871,85.023 28.917 C 84.922 29.283,84.648 30.258,84.414 31.083 C 84.181 31.908,83.908 32.883,83.809 33.250 C 83.709 33.617,83.570 34.104,83.500 34.333 C 83.329 34.891,83.111 35.673,82.410 38.250 C 82.086 39.442,81.757 40.604,81.680 40.833 C 81.602 41.063,81.442 41.570,81.325 41.962 L 81.111 42.674 78.288 42.629 L 75.466 42.583 75.257 41.917 C 75.011 41.132,74.863 40.614,74.086 37.833 C 73.766 36.688,73.438 35.525,73.358 35.250 C 73.277 34.975,73.118 34.412,73.003 34.000 C 72.889 33.587,72.731 33.063,72.654 32.833 C 72.352 31.942,71.333 28.155,71.333 27.927 C 71.333 27.795,71.264 27.643,71.179 27.591 C 71.085 27.533,71.036 30.449,71.054 35.039 L 71.083 42.583 68.458 42.629 L 65.833 42.675 65.833 31.671 L 65.833 20.667 69.833 20.667 C 72.033 20.667,73.833 20.686,73.833 20.709 M157.508 20.932 C 161.542 21.965,163.479 25.139,162.683 29.411 C 161.979 33.195,159.534 35.030,154.833 35.305 L 152.917 35.417 152.872 39.042 L 152.827 42.667 149.830 42.667 L 146.833 42.667 146.833 31.667 L 146.833 20.667 151.653 20.667 C 155.515 20.667,156.679 20.719,157.508 20.932 M276.500 22.997 L 276.500 25.327 272.958 25.372 L 269.417 25.417 269.417 27.500 L 269.417 29.583 272.667 29.667 L 275.917 29.750 275.965 31.750 C 276.038 34.797,276.404 34.500,272.583 34.500 L 269.339 34.500 269.295 38.542 L 269.250 42.583 266.375 42.629 L 263.500 42.675 263.500 31.671 L 263.500 20.667 270.000 20.667 L 276.500 20.667 276.500 22.997 M13.593 24.651 C 13.478 24.837,13.764 26.226,14.014 26.693 C 14.169 26.983,14.364 27.006,16.300 26.963 L 18.417 26.917 18.368 26.175 C 18.267 24.631,18.202 24.590,15.803 24.537 C 14.574 24.510,13.651 24.557,13.593 24.651 M21.914 24.671 C 21.760 24.921,21.989 26.183,22.270 26.625 L 22.508 27.000 29.075 27.000 L 35.643 27.000 35.914 26.068 C 36.385 24.447,37.026 24.589,29.050 24.540 C 24.287 24.510,21.987 24.553,21.914 24.671 M40.049 24.704 C 39.792 25.037,39.449 26.460,39.558 26.744 C 39.641 26.960,40.096 27.000,42.490 27.000 L 45.325 27.000 45.591 26.486 C 45.737 26.203,45.870 25.660,45.886 25.278 L 45.917 24.583 43.065 24.538 C 40.910 24.503,40.174 24.544,40.049 24.704 M107.417 25.849 C 111.275 27.256,113.329 31.508,112.427 36.221 C 111.577 40.667,108.705 42.941,104.000 42.894 C 98.667 42.841,95.631 39.645,95.631 34.083 C 95.631 29.196,97.936 26.220,102.333 25.431 C 103.394 25.240,106.434 25.491,107.417 25.849 M130.573 25.983 C 133.275 27.313,133.710 28.914,133.633 37.250 L 133.583 42.583 130.639 42.629 L 127.694 42.674 127.636 37.212 C 127.582 32.170,127.552 31.699,127.247 31.083 C 126.598 29.773,125.004 29.573,123.844 30.656 C 123.023 31.424,122.940 31.989,122.841 37.500 L 122.750 42.583 119.833 42.583 L 116.917 42.583 116.873 34.125 L 116.830 25.667 119.073 25.667 L 121.315 25.667 121.680 26.667 C 122.113 27.853,122.177 27.868,123.035 26.984 C 124.695 25.273,128.190 24.809,130.573 25.983 M177.310 25.496 C 179.671 25.943,181.251 27.348,181.986 29.650 C 182.102 30.015,182.167 32.429,182.167 36.447 L 182.167 42.677 180.133 42.630 L 178.100 42.583 177.623 41.667 C 176.958 40.390,176.950 40.387,176.141 41.119 C 172.021 44.841,166.000 42.821,166.000 37.717 C 166.000 33.904,168.351 32.204,174.047 31.898 C 176.420 31.771,176.419 31.771,176.170 30.846 C 175.725 29.193,173.372 29.038,170.189 30.451 C 169.466 30.773,169.404 30.705,168.523 28.620 C 167.692 26.655,167.690 26.902,168.542 26.506 C 170.645 25.529,174.901 25.039,177.310 25.496 M200.595 25.855 C 201.770 26.405,202.874 27.571,203.343 28.760 C 203.735 29.752,204.082 40.987,203.760 42.269 L 203.658 42.675 200.788 42.629 L 197.917 42.583 197.833 37.083 C 197.779 33.510,197.684 31.437,197.561 31.167 C 196.931 29.779,195.164 29.539,194.060 30.691 C 193.197 31.591,193.132 32.019,193.020 37.500 L 192.917 42.583 190.042 42.629 L 187.167 42.675 187.167 34.171 L 187.167 25.667 189.417 25.667 C 191.533 25.667,191.667 25.686,191.667 25.990 C 191.667 26.168,191.732 26.354,191.812 26.403 C 191.892 26.453,192.003 26.721,192.058 27.000 C 192.211 27.762,192.519 27.751,193.349 26.956 C 195.040 25.336,198.396 24.825,200.595 25.855 M230.750 25.839 C 234.149 27.131,235.666 29.888,235.468 34.417 L 235.417 35.583 230.208 35.627 L 225.000 35.671 225.012 36.211 C 225.071 38.800,229.354 39.620,233.441 37.825 C 234.345 37.428,234.333 37.404,234.333 39.704 L 234.333 41.685 233.458 42.066 C 229.557 43.765,223.736 43.054,221.227 40.572 C 217.469 36.855,218.469 28.381,222.917 26.259 C 225.054 25.240,228.665 25.046,230.750 25.839 M251.630 25.542 C 251.793 25.740,251.729 26.789,251.366 29.912 L 251.250 30.908 249.583 30.929 C 247.829 30.951,247.170 31.121,246.524 31.719 C 245.800 32.391,245.753 32.714,245.667 37.750 L 245.583 42.583 242.667 42.583 L 239.750 42.583 239.707 34.125 L 239.664 25.667 241.892 25.667 L 244.121 25.667 244.519 26.914 C 244.981 28.364,245.186 28.517,245.684 27.784 C 246.387 26.749,247.765 25.771,248.917 25.490 C 249.765 25.282,251.444 25.314,251.630 25.542 M291.750 25.838 C 294.979 27.058,296.204 29.050,296.434 33.456 L 296.550 35.662 291.233 35.706 L 285.917 35.750 285.964 36.167 C 286.260 38.789,290.217 39.609,294.275 37.889 C 295.325 37.444,295.333 37.458,295.333 39.676 L 295.333 41.685 294.458 42.066 C 291.692 43.271,286.743 43.235,284.177 41.992 C 278.581 39.281,278.416 29.034,283.924 26.296 C 284.647 25.937,285.128 25.781,286.583 25.431 C 287.499 25.210,290.771 25.468,291.750 25.838 M312.484 25.486 C 312.720 25.636,312.691 26.707,312.363 29.833 L 312.250 30.917 311.120 30.864 C 307.051 30.675,306.500 31.564,306.500 38.317 L 306.500 42.667 303.583 42.667 L 300.667 42.667 300.667 34.162 L 300.667 25.657 302.875 25.703 L 305.083 25.750 305.526 27.000 C 305.969 28.252,306.237 28.474,306.566 27.862 C 307.467 26.183,311.211 24.681,312.484 25.486 M329.167 25.696 C 330.002 26.012,330.943 26.625,331.313 27.095 C 331.740 27.639,332.236 27.605,332.663 27.005 C 334.114 24.967,339.300 24.795,341.307 26.717 C 342.832 28.178,343.036 29.423,342.969 36.833 L 342.917 42.583 340.000 42.583 L 337.083 42.583 337.000 37.083 C 336.904 30.738,336.851 30.478,335.581 30.055 C 334.908 29.830,333.969 30.088,333.447 30.641 C 332.630 31.507,332.500 32.457,332.497 37.572 C 332.496 40.145,332.434 42.346,332.360 42.462 C 332.257 42.624,331.549 42.664,329.404 42.629 L 326.583 42.583 326.496 37.083 C 326.436 33.347,326.344 31.450,326.210 31.167 C 325.353 29.366,323.344 29.544,322.446 31.500 C 322.128 32.193,322.098 32.620,322.047 37.083 C 322.016 39.742,321.954 42.087,321.908 42.296 C 321.825 42.674,321.821 42.674,318.954 42.629 L 316.083 42.583 316.083 34.167 L 316.083 25.750 318.295 25.703 C 320.292 25.661,320.516 25.686,320.602 25.953 C 320.654 26.117,320.760 26.400,320.838 26.583 C 320.916 26.767,321.026 27.085,321.084 27.292 C 321.223 27.789,321.593 27.767,321.938 27.241 C 322.315 26.665,323.419 25.945,324.333 25.678 C 324.746 25.558,325.158 25.432,325.250 25.399 C 325.623 25.263,328.624 25.491,329.167 25.696 M369.917 25.838 C 373.132 27.052,374.377 29.098,374.608 33.542 L 374.718 35.667 369.470 35.667 C 363.663 35.667,363.987 35.619,364.175 36.454 C 364.730 38.916,368.621 39.551,372.583 37.825 C 373.498 37.427,373.500 37.431,373.500 39.686 L 373.500 41.685 372.625 42.066 C 370.711 42.899,366.299 43.228,364.250 42.690 C 359.095 41.336,356.850 36.426,358.639 30.412 C 359.113 28.818,360.614 27.030,362.097 26.293 C 362.814 25.937,363.296 25.780,364.750 25.431 C 365.666 25.210,368.938 25.468,369.917 25.838 M390.697 25.542 C 390.930 25.729,390.933 25.998,390.727 28.167 C 390.432 31.277,390.561 31.042,389.210 30.913 C 387.220 30.723,385.733 31.307,385.065 32.540 C 384.808 33.014,384.762 33.696,384.704 37.879 L 384.636 42.674 381.776 42.629 L 378.917 42.583 378.917 34.167 L 378.917 25.750 381.125 25.703 C 383.227 25.659,383.333 25.673,383.333 25.985 C 383.333 26.166,383.393 26.351,383.467 26.396 C 383.541 26.442,383.703 26.855,383.829 27.316 C 384.124 28.401,384.394 28.487,384.936 27.668 C 386.084 25.932,389.575 24.644,390.697 25.542 M152.833 28.000 L 152.833 30.500 153.724 30.500 C 155.477 30.500,156.833 29.246,156.833 27.625 C 156.833 26.250,155.836 25.500,154.008 25.500 L 152.833 25.500 152.833 28.000 M214.566 25.930 C 214.621 26.075,214.667 29.782,214.667 34.167 C 214.667 38.552,214.621 42.258,214.566 42.403 C 214.479 42.629,214.055 42.667,211.566 42.667 L 208.667 42.667 208.667 34.167 L 208.667 25.667 211.566 25.667 C 214.055 25.667,214.479 25.704,214.566 25.930 M353.732 25.930 C 353.788 26.075,353.833 29.782,353.833 34.167 C 353.833 38.552,353.788 42.258,353.732 42.403 C 353.645 42.629,353.222 42.667,350.732 42.667 L 347.833 42.667 347.833 34.167 L 347.833 25.667 350.732 25.667 C 353.222 25.667,353.645 25.704,353.732 25.930 M226.719 29.466 C 225.912 29.725,225.355 30.441,225.067 31.591 L 224.964 32.000 227.482 32.000 L 230.000 32.000 229.999 31.542 C 229.997 30.151,228.176 28.999,226.719 29.466 M287.833 29.433 C 286.846 29.793,286.249 30.501,286.139 31.445 L 286.083 31.917 288.542 31.963 C 291.310 32.015,291.333 32.002,290.729 30.730 C 290.269 29.760,288.774 29.091,287.833 29.433 M365.886 29.466 C 365.079 29.725,364.522 30.441,364.233 31.591 L 364.131 32.000 366.649 32.000 C 369.505 32.000,369.511 31.996,368.831 30.662 C 368.308 29.637,367.005 29.107,365.886 29.466 M103.417 29.808 C 101.144 30.547,100.745 36.632,102.865 38.215 C 104.068 39.114,105.723 38.420,106.264 36.790 C 107.490 33.099,105.828 29.024,103.417 29.808 M15.167 30.748 C 15.167 32.430,15.571 32.699,18.000 32.632 L 19.750 32.583 19.703 31.854 C 19.616 30.511,19.595 30.500,17.244 30.500 C 15.518 30.500,15.167 30.542,15.167 30.748 M23.272 30.631 C 23.140 30.844,23.505 32.296,23.739 32.491 C 23.888 32.614,25.596 32.657,29.103 32.627 L 34.250 32.583 34.544 31.696 C 34.706 31.209,34.795 30.740,34.743 30.655 C 34.626 30.466,23.389 30.442,23.272 30.631 M38.495 30.843 C 38.394 31.032,38.297 31.501,38.281 31.885 L 38.250 32.583 40.750 32.631 C 44.056 32.694,44.333 32.557,44.333 30.856 C 44.333 30.310,38.787 30.298,38.495 30.843 M173.466 35.394 C 171.451 36.288,171.763 39.031,173.851 38.778 C 175.421 38.587,176.167 37.810,176.293 36.233 L 176.379 35.167 175.148 35.180 C 174.471 35.188,173.714 35.284,173.466 35.394 M17.208 36.172 C 17.002 36.255,16.833 36.424,16.833 36.548 C 16.833 36.911,17.352 38.565,17.537 38.792 C 17.758 39.061,21.095 39.085,21.260 38.818 C 21.456 38.499,20.982 36.603,20.628 36.292 C 20.260 35.968,17.920 35.886,17.208 36.172 M24.851 36.150 C 24.565 36.334,24.667 37.464,25.052 38.375 L 25.316 39.000 28.995 39.000 C 32.656 39.000,32.675 38.998,32.820 38.625 C 33.161 37.746,33.361 36.871,33.308 36.491 L 33.250 36.083 29.167 36.043 C 26.921 36.020,24.979 36.069,24.851 36.150 M37.379 36.132 C 37.104 36.310,36.578 38.363,36.716 38.722 C 36.815 38.979,37.096 39.004,39.439 38.963 L 42.052 38.917 42.365 38.000 C 42.537 37.496,42.657 36.858,42.631 36.583 L 42.583 36.083 40.083 36.042 C 38.708 36.019,37.492 36.060,37.379 36.132 " stroke="none" fill="#f3d454" fill-rule="evenodd"></path><path id="path1" d="M26.016 4.705 C 25.126 5.175,24.906 5.896,22.158 17.333 C 21.171 21.440,21.996 20.969,15.687 21.031 C 9.815 21.089,9.991 21.056,9.400 22.200 C 9.134 22.713,9.080 22.456,10.504 27.500 C 10.982 29.196,11.506 31.071,11.667 31.667 C 12.025 32.990,13.911 39.576,14.286 40.812 C 14.787 42.460,13.480 42.332,29.853 42.333 C 46.919 42.333,44.760 42.837,45.920 38.583 C 46.170 37.667,46.593 36.167,46.859 35.250 C 47.750 32.184,47.826 31.921,48.099 30.917 C 48.248 30.367,48.468 29.579,48.587 29.167 C 48.707 28.754,48.920 28.004,49.061 27.500 C 50.994 20.601,51.466 21.103,42.975 21.032 L 36.852 20.981 36.605 20.116 C 36.469 19.640,35.597 16.175,34.667 12.417 C 33.143 6.258,32.929 5.535,32.499 5.097 C 31.549 4.130,29.904 4.580,29.573 5.897 C 29.499 6.194,31.243 13.766,32.324 17.833 C 32.899 19.999,33.015 20.555,32.934 20.764 C 32.802 21.108,25.247 21.115,25.115 20.772 C 25.066 20.646,25.580 18.302,26.255 15.563 C 26.931 12.824,27.718 9.626,28.005 8.456 C 28.566 6.165,28.557 5.599,27.950 5.034 C 27.474 4.592,26.533 4.432,26.016 4.705 M210.583 18.814 C 208.032 19.468,207.861 22.883,210.337 23.728 C 213.272 24.729,215.976 22.238,214.461 19.927 C 213.822 18.952,212.039 18.441,210.583 18.814 M349.833 18.816 C 347.364 19.334,346.965 22.906,349.290 23.682 C 351.610 24.457,353.774 23.459,353.960 21.528 C 354.151 19.535,352.278 18.303,349.833 18.816 M65.833 31.671 L 65.833 42.675 68.458 42.629 L 71.083 42.583 71.054 35.039 C 71.036 30.449,71.085 27.533,71.179 27.591 C 71.264 27.643,71.333 27.795,71.333 27.927 C 71.333 28.155,72.352 31.942,72.654 32.833 C 72.731 33.063,72.889 33.587,73.003 34.000 C 73.118 34.412,73.277 34.975,73.358 35.250 C 73.438 35.525,73.766 36.688,74.086 37.833 C 74.863 40.614,75.011 41.132,75.257 41.917 L 75.466 42.583 78.288 42.629 L 81.111 42.674 81.325 41.962 C 81.442 41.570,81.602 41.063,81.680 40.833 C 81.757 40.604,82.086 39.442,82.410 38.250 C 83.111 35.673,83.329 34.891,83.500 34.333 C 83.570 34.104,83.709 33.617,83.809 33.250 C 83.908 32.883,84.181 31.908,84.414 31.083 C 84.648 30.258,84.922 29.283,85.023 28.917 C 85.588 26.871,85.597 26.988,85.528 34.917 L 85.459 42.667 88.230 42.667 L 91.000 42.667 91.000 31.667 L 91.000 20.667 87.022 20.667 L 83.043 20.667 82.500 22.542 C 82.202 23.573,81.865 24.717,81.753 25.083 C 81.640 25.450,81.465 26.050,81.363 26.417 C 81.262 26.783,81.024 27.608,80.834 28.250 C 80.645 28.892,80.057 30.942,79.527 32.806 C 78.447 36.609,78.464 36.596,77.791 34.250 C 77.554 33.425,76.860 31.063,76.248 29.000 C 75.637 26.938,75.074 25.025,74.999 24.750 C 74.923 24.475,74.630 23.463,74.347 22.500 C 74.065 21.538,73.833 20.732,73.833 20.709 C 73.833 20.686,72.033 20.667,69.833 20.667 L 65.833 20.667 65.833 31.671 M146.833 31.667 L 146.833 42.667 149.830 42.667 L 152.827 42.667 152.872 39.042 L 152.917 35.417 154.833 35.305 C 156.828 35.188,157.884 34.960,159.188 34.363 C 163.100 32.573,164.131 25.938,160.986 22.793 C 159.132 20.938,157.940 20.667,151.653 20.667 L 146.833 20.667 146.833 31.667 M263.500 31.671 L 263.500 42.675 266.375 42.629 L 269.250 42.583 269.295 38.542 L 269.339 34.500 272.583 34.500 C 276.404 34.500,276.038 34.797,275.965 31.750 L 275.917 29.750 272.667 29.667 L 269.417 29.583 269.417 27.500 L 269.417 25.417 272.958 25.372 L 276.500 25.327 276.500 22.997 L 276.500 20.667 270.000 20.667 L 263.500 20.667 263.500 31.671 M18.116 25.009 C 18.228 25.243,18.342 25.768,18.368 26.175 L 18.417 26.917 16.300 26.963 C 13.908 27.016,13.998 27.063,13.669 25.594 C 13.422 24.491,13.435 24.485,15.803 24.537 C 17.881 24.583,17.916 24.590,18.116 25.009 M36.132 24.859 C 36.161 25.011,36.063 25.555,35.914 26.068 L 35.643 27.000 29.075 27.000 L 22.508 27.000 22.270 26.625 C 21.989 26.183,21.760 24.921,21.914 24.671 C 22.119 24.340,36.067 24.524,36.132 24.859 M45.886 25.278 C 45.870 25.660,45.737 26.203,45.591 26.486 L 45.325 27.000 42.490 27.000 C 39.272 27.000,39.316 27.020,39.672 25.703 C 40.013 24.443,39.884 24.487,43.065 24.538 L 45.917 24.583 45.886 25.278 M102.333 25.431 C 96.518 26.474,93.750 32.943,96.614 38.798 C 99.437 44.568,109.321 44.283,111.814 38.361 C 114.844 31.163,109.675 24.113,102.333 25.431 M125.833 25.479 C 124.787 25.708,123.711 26.287,123.035 26.984 C 122.177 27.868,122.113 27.853,121.680 26.667 L 121.315 25.667 119.073 25.667 L 116.830 25.667 116.873 34.125 L 116.917 42.583 119.833 42.583 L 122.750 42.583 122.841 37.500 C 122.940 31.989,123.023 31.424,123.844 30.656 C 125.004 29.573,126.598 29.773,127.247 31.083 C 127.552 31.699,127.582 32.170,127.636 37.212 L 127.694 42.674 130.639 42.629 L 133.583 42.583 133.633 37.250 C 133.697 30.251,133.491 28.838,132.154 27.150 C 131.061 25.770,128.088 24.984,125.833 25.479 M172.167 25.507 C 170.526 25.741,167.833 26.614,167.833 26.912 C 167.833 27.123,169.240 30.280,169.420 30.475 C 169.595 30.664,169.719 30.660,170.189 30.451 C 173.372 29.038,175.725 29.193,176.170 30.846 C 176.419 31.771,176.420 31.771,174.047 31.898 C 168.351 32.204,166.000 33.904,166.000 37.717 C 166.000 42.821,172.021 44.841,176.141 41.119 C 176.950 40.387,176.958 40.390,177.623 41.667 L 178.100 42.583 180.133 42.630 L 182.167 42.677 182.167 36.447 C 182.167 32.429,182.102 30.015,181.986 29.650 C 180.851 26.094,177.622 24.731,172.167 25.507 M196.045 25.498 C 194.984 25.724,194.182 26.158,193.349 26.956 C 192.519 27.751,192.211 27.762,192.058 27.000 C 192.003 26.721,191.892 26.453,191.812 26.403 C 191.732 26.354,191.667 26.168,191.667 25.990 C 191.667 25.686,191.533 25.667,189.417 25.667 L 187.167 25.667 187.167 34.171 L 187.167 42.675 190.042 42.629 L 192.917 42.583 193.020 37.500 C 193.132 32.019,193.197 31.591,194.060 30.691 C 195.164 29.539,196.931 29.779,197.561 31.167 C 197.684 31.437,197.779 33.510,197.833 37.083 L 197.917 42.583 200.788 42.629 L 203.658 42.675 203.760 42.269 C 204.082 40.987,203.735 29.752,203.343 28.760 C 202.323 26.177,199.267 24.811,196.045 25.498 M224.667 25.637 C 217.676 27.603,216.649 38.774,223.167 41.947 C 225.834 43.246,230.622 43.301,233.458 42.066 L 234.333 41.685 234.333 39.704 C 234.333 37.404,234.345 37.428,233.441 37.825 C 229.354 39.620,225.071 38.800,225.012 36.211 L 225.000 35.671 230.208 35.627 L 235.417 35.583 235.468 34.417 C 235.721 28.612,233.115 25.565,227.750 25.395 C 226.173 25.345,225.521 25.396,224.667 25.637 M248.917 25.490 C 247.765 25.771,246.387 26.749,245.684 27.784 C 245.186 28.517,244.981 28.364,244.519 26.914 L 244.121 25.667 241.892 25.667 L 239.664 25.667 239.707 34.125 L 239.750 42.583 242.667 42.583 L 245.583 42.583 245.667 37.750 C 245.753 32.714,245.800 32.391,246.524 31.719 C 247.170 31.121,247.829 30.951,249.583 30.929 L 251.250 30.908 251.366 29.912 C 251.729 26.789,251.793 25.740,251.630 25.542 C 251.444 25.314,249.765 25.282,248.917 25.490 M286.583 25.431 C 285.128 25.781,284.647 25.937,283.924 26.296 C 278.416 29.034,278.581 39.281,284.177 41.992 C 286.743 43.235,291.692 43.271,294.458 42.066 L 295.333 41.685 295.333 39.676 C 295.333 37.458,295.325 37.444,294.275 37.889 C 290.217 39.609,286.260 38.789,285.964 36.167 L 285.917 35.750 291.233 35.706 L 296.550 35.662 296.434 33.456 C 296.204 29.050,294.979 27.058,291.750 25.838 C 290.771 25.468,287.499 25.210,286.583 25.431 M309.917 25.488 C 308.748 25.771,307.038 26.982,306.566 27.862 C 306.237 28.474,305.969 28.252,305.526 27.000 L 305.083 25.750 302.875 25.703 L 300.667 25.657 300.667 34.162 L 300.667 42.667 303.583 42.667 L 306.500 42.667 306.500 38.317 C 306.500 31.564,307.051 30.675,311.120 30.864 L 312.250 30.917 312.363 29.833 C 312.691 26.707,312.720 25.636,312.484 25.486 C 312.210 25.313,310.637 25.314,309.917 25.488 M325.250 25.399 C 325.158 25.432,324.746 25.558,324.333 25.678 C 323.419 25.945,322.315 26.665,321.938 27.241 C 321.593 27.767,321.223 27.789,321.084 27.292 C 321.026 27.085,320.916 26.767,320.838 26.583 C 320.760 26.400,320.654 26.117,320.602 25.953 C 320.516 25.686,320.292 25.661,318.295 25.703 L 316.083 25.750 316.083 34.167 L 316.083 42.583 318.954 42.629 C 321.821 42.674,321.825 42.674,321.908 42.296 C 321.954 42.087,322.016 39.742,322.047 37.083 C 322.098 32.620,322.128 32.193,322.446 31.500 C 323.344 29.544,325.353 29.366,326.210 31.167 C 326.344 31.450,326.436 33.347,326.496 37.083 L 326.583 42.583 329.404 42.629 C 331.549 42.664,332.257 42.624,332.360 42.462 C 332.434 42.346,332.496 40.145,332.497 37.572 C 332.500 32.457,332.630 31.507,333.447 30.641 C 333.969 30.088,334.908 29.830,335.581 30.055 C 336.851 30.478,336.904 30.738,337.000 37.083 L 337.083 42.583 340.000 42.583 L 342.917 42.583 342.969 36.833 C 343.036 29.423,342.832 28.178,341.307 26.717 C 339.300 24.795,334.114 24.967,332.663 27.005 C 332.236 27.605,331.740 27.639,331.313 27.095 C 330.380 25.909,326.688 24.876,325.250 25.399 M364.750 25.431 C 363.296 25.780,362.814 25.937,362.097 26.293 C 360.614 27.030,359.113 28.818,358.639 30.412 C 356.850 36.426,359.095 41.336,364.250 42.690 C 366.299 43.228,370.711 42.899,372.625 42.066 L 373.500 41.685 373.500 39.686 C 373.500 37.431,373.498 37.427,372.583 37.825 C 368.621 39.551,364.730 38.916,364.175 36.454 C 363.987 35.619,363.663 35.667,369.470 35.667 L 374.718 35.667 374.608 33.542 C 374.377 29.098,373.132 27.052,369.917 25.838 C 368.938 25.468,365.666 25.210,364.750 25.431 M388.083 25.489 C 386.907 25.775,385.580 26.694,384.936 27.668 C 384.394 28.487,384.124 28.401,383.829 27.316 C 383.703 26.855,383.541 26.442,383.467 26.396 C 383.393 26.351,383.333 26.166,383.333 25.985 C 383.333 25.673,383.227 25.659,381.125 25.703 L 378.917 25.750 378.917 34.167 L 378.917 42.583 381.776 42.629 L 384.636 42.674 384.704 37.879 C 384.762 33.696,384.808 33.014,385.065 32.540 C 385.733 31.307,387.220 30.723,389.210 30.913 C 390.561 31.042,390.432 31.277,390.727 28.167 C 391.008 25.217,390.658 24.862,388.083 25.489 M155.662 25.747 C 158.032 26.973,156.594 30.500,153.724 30.500 L 152.833 30.500 152.833 28.000 L 152.833 25.500 154.008 25.500 C 154.721 25.500,155.371 25.597,155.662 25.747 M208.667 34.167 L 208.667 42.667 211.566 42.667 C 214.055 42.667,214.479 42.629,214.566 42.403 C 214.621 42.258,214.667 38.552,214.667 34.167 C 214.667 29.782,214.621 26.075,214.566 25.930 C 214.479 25.704,214.055 25.667,211.566 25.667 L 208.667 25.667 208.667 34.167 M347.833 34.167 L 347.833 42.667 350.732 42.667 C 353.222 42.667,353.645 42.629,353.732 42.403 C 353.788 42.258,353.833 38.552,353.833 34.167 C 353.833 29.782,353.788 26.075,353.732 25.930 C 353.645 25.704,353.222 25.667,350.732 25.667 L 347.833 25.667 347.833 34.167 M228.955 29.760 C 229.487 30.108,229.999 30.981,229.999 31.542 L 230.000 32.000 227.482 32.000 L 224.964 32.000 225.067 31.591 C 225.565 29.604,227.400 28.741,228.955 29.760 M289.994 29.829 C 290.502 30.191,291.000 31.095,291.000 31.655 C 291.000 32.002,290.952 32.008,288.542 31.963 L 286.083 31.917 286.139 31.445 C 286.249 30.501,286.846 29.793,287.833 29.433 C 288.290 29.267,289.522 29.493,289.994 29.829 M368.112 29.753 C 368.550 30.041,369.167 31.155,369.167 31.660 C 369.167 31.987,369.072 32.000,366.649 32.000 L 364.131 32.000 364.233 31.591 C 364.730 29.610,366.566 28.741,368.112 29.753 M104.653 29.772 C 106.755 30.193,107.382 36.280,105.508 38.076 C 104.102 39.422,102.174 38.337,101.696 35.931 C 100.932 32.088,102.273 29.296,104.653 29.772 M19.489 30.812 C 19.581 30.984,19.677 31.453,19.703 31.854 L 19.750 32.583 18.000 32.632 C 15.571 32.699,15.167 32.430,15.167 30.748 C 15.167 30.327,19.262 30.388,19.489 30.812 M34.743 30.655 C 34.795 30.740,34.706 31.209,34.544 31.696 L 34.250 32.583 29.103 32.627 C 25.596 32.657,23.888 32.614,23.739 32.491 C 23.505 32.296,23.140 30.844,23.272 30.631 C 23.389 30.442,34.626 30.466,34.743 30.655 M44.333 30.856 C 44.333 32.557,44.056 32.694,40.750 32.631 L 38.250 32.583 38.281 31.885 C 38.342 30.485,38.306 30.500,41.506 30.500 C 44.281 30.500,44.333 30.507,44.333 30.856 M176.293 36.233 C 176.071 39.008,172.167 40.000,172.167 37.282 C 172.167 35.840,173.070 35.203,175.148 35.180 L 176.379 35.167 176.293 36.233 M20.628 36.292 C 20.982 36.603,21.456 38.499,21.260 38.818 C 21.095 39.085,17.758 39.061,17.537 38.792 C 17.352 38.565,16.833 36.911,16.833 36.548 C 16.833 35.963,20.011 35.749,20.628 36.292 M33.308 36.491 C 33.361 36.871,33.161 37.746,32.820 38.625 C 32.675 38.998,32.656 39.000,28.995 39.000 L 25.316 39.000 25.052 38.375 C 24.667 37.464,24.565 36.334,24.851 36.150 C 24.979 36.069,26.921 36.020,29.167 36.043 L 33.250 36.083 33.308 36.491 M42.631 36.583 C 42.657 36.858,42.537 37.496,42.365 38.000 L 42.052 38.917 39.439 38.963 C 36.384 39.016,36.444 39.054,36.891 37.350 C 37.257 35.953,37.159 35.993,40.083 36.042 L 42.583 36.083 42.631 36.583 " stroke="none" fill="#26b45c" fill-rule="evenodd"></path></g></svg>